<?xml version="1.0" encoding="UTF-8"?>
<svg id="Layer_19" data-name="Layer 19" xmlns="http://www.w3.org/2000/svg" viewBox="0 0 500 500">
  <defs>
    <style>
      .cls-1 {
        fill: #c1272d;
      }

      .cls-2 {
        fill: #d43341;
      }
    </style>
  </defs>
  <g>
    <path d="M166.55,330.15c-31.25-33.24-38.71-84.28-19.63-125.42,32.82-72.94,128.8-91.33,186.27-35.54,60.76,58.75,39.79,161.63-39.23,191.9-43.79,17-96.1,3.68-127.41-30.94h0Zm5.77-5.58c24.78,24.83,62.24,35.3,96.31,27.87,81.95-17.11,115.24-115.37,59.32-178.2-53.05-58.89-149.69-42.3-180.35,30.79-17.15,40.1-6.48,89.46,24.72,119.54h0Z"/>
    <path class="cls-1" d="M292.85,279.62c4.73,7.44,14.92,18.86,25.95,30.85,4.51,4.9,9.15,9.88,13.64,14.74,15.75,17.1,29.39,32.52,27.17,36.11-.06,.09-.13,.18-.21,.26-.12,.12-.28,.23-.46,.3-.22,.1-.47,.16-.76,.19-12.72,1.49-27.03-10.32-37.79-22.12-.59-.64-1.23-1.28-1.91-1.91-4.86-4.43-11.91-8.32-18.54-11.36-9.49-4.35-18.11-6.96-18.11-6.96"/>
  </g>
  <path class="cls-2" d="M331.09,219.23c-3.56,8.08-8.98,14.41-13.09,18.44-2.16,2.12-4.38,4.47-7.3,5.26-12.42,3.33-15.95,19.1-17.8,36.96,4.73,7.44,14.92,18.86,25.95,30.85,4.51,4.9,9.15,9.88,13.64,14.74,15.75,17.1,29.39,32.52,27.17,36.11-.06,.09-.13,.18-.21,.26-.12,.12-.28,.23-.46,.3-.22,.1-.47,.16-.76,.19-12.72,1.49-27.03-10.32-37.79-22.12-.59-.64-1.23-1.28-1.91-1.91-4.86-4.43-11.91-8.32-18.54-11.36-9.49-4.35-18.11-6.96-18.11-6.96-5.15-.31-1.83-9.92-1.7-10.32l-8.62,5.53s-15.49-1.01-15.28-6.94c.21-5.93-15.05-19.94-22.4-25.22-7.34-5.29-7.2-15.23-9.28-27.96-12.22-35.14-18.78-46.44-28.9-54.22-3.74-2.87-11.56-4.45-19.91-5.28-8.36-.84-12.91-1.28-18.81-1.22-4.15,.04-12.87,3.61-12.87,3.61,2.3-.9,.95-2.7,6.56-4.17,.43-.11,4-1.26,4.44-1.33,5.77-.94,12.25-1.29,18.09-1.28,.83,0,1.65,0,2.46,.02,1.19,.02,2.34,.05,3.44,.1,4.86,.21,8.73,.64,10.52,1.11,5.54,1.46,23.73-2.69,38.36-3.32,14.63-.62,18.01,20.05,18.56,27.03,.55,6.98,12.09,16.29,12.09,16.29,0,0,25.23-29.48,45.16-39.43,4.6-2.3,8.96-5.03,13.09-8.1,11.71-8.73,48.85-44.26,14.22,34.32Z"/>
</svg>