<?xml version="1.0" encoding="UTF-8"?>
<svg id="Layer_15" data-name="Layer 15" xmlns="http://www.w3.org/2000/svg" viewBox="0 0 500 500">
  <defs>
    <style>
      .cls-1 {
        fill: #c1272d;
      }

      .cls-2 {
        fill: #d43341;
      }

      .cls-3 {
        stroke: #000;
        stroke-miterlimit: 10;
        stroke-width: 2px;
      }
    </style>
  </defs>
  <g>
    <path d="M152.68,265.49c-31.25-33.24-38.71-84.28-19.63-125.42,32.82-72.94,128.8-91.33,186.27-35.54,60.76,58.75,39.79,161.63-39.23,191.9-43.79,17-96.1,3.68-127.41-30.94h0Zm5.77-5.58c24.78,24.83,62.24,35.3,96.31,27.87,81.95-17.11,115.24-115.37,59.32-178.2-53.05-58.89-149.69-42.3-180.35,30.79-17.15,40.1-6.48,89.46,24.72,119.54h0Z"/>
    <path class="cls-1" d="M278.98,214.96c4.73,7.44,14.92,18.86,25.95,30.85,4.51,4.9,9.15,9.88,13.64,14.74,15.75,17.1,29.39,32.52,27.17,36.11-.06,.09-.13,.18-.21,.26-.12,.12-.28,.23-.46,.3-.22,.1-.47,.16-.76,.19-12.72,1.49-27.03-10.32-37.79-22.12-.59-.64-1.23-1.28-1.91-1.91-4.86-4.43-11.91-8.32-18.54-11.36-9.49-4.35-18.11-6.96-18.11-6.96"/>
  </g>
  <g>
    <path class="cls-3" d="M209.5,365.28l3.38,2.3c2.52-1.94,4.61-4.32,5.98-6.98,1.66-3.24,2.45-6.98,2.45-10.73,0-2.16-.22-4.32-.79-6.48-3.02-8.79-11.45-14.04-20.52-14.04-.65,0-1.37,0-2.09,.07-2.09,.21-4.18,.5-5.18,.94-.79,.29-.86,.29-.86,.29-.14,0-.43-.14-.43-.29,0-.07,.07-.14,.14-.29,.36-.5,4.54-5.83,13.68-5.83h.72c13.54,.29,20.45,12.46,20.45,22.11,0,6.41-2.74,12.67-6.84,17.71-1.08,1.37-2.81,3.02-4.9,4.75,3.82,2.3,7.27,3.1,9.07,3.1,1.94,0,2.52-.29,3.1-.29,.36,0,.58,.29,.58,.58,0,.43-2.66,4.18-7.56,4.18-3.31,0-5.54-1.58-7.92-3.38-.5-.36-1.01-.79-1.58-1.15-4.18,2.59-9.14,4.68-13.9,4.68-2.95,0-6.62-1.15-9.72-3.17-6.34-4.75-9-11.52-9-17.86,0-4.83,1.87-9.94,4.54-13.47,2.09-2.81,8.57-9.79,12.31-10.15,0,0,.43,.22,.43,.36s-.22,.36-.65,.65c-1.15,.87-3.67,2.74-6.91,8.86-2.23,4.18-3.6,8.71-3.6,12.82,0,5.69,1.73,10.87,6.98,14.83,2.59,2.02,6.12,2.95,9.43,2.95,2.59,0,5.4-.72,7.99-1.87l-2.88-1.87c-3.24-2.09-5.83-3.82-9.07-3.82-1.08,0-2.09,.07-3.24,.22-.36,.07-.58,.07-.79,.07-.36,0-.5-.29-.5-.58,0-.36,3.38-3.82,7.7-3.82,3.24,0,6.26,2.09,10.01,4.61Z"/>
    <path d="M238.01,334.96c0,2.74-3.67,6.34-6.19,7.2-.43,.14-.72,.22-.94,.22-.29,0-.43-.14-.5-.29,.07-.36,.43-.94,.86-1.58l.65-.86c.79-1.15,1.3-2.88,1.3-4.32,0-.29,0-.72-.36-2.23-.07-.43-.14-.65-.14-.94,0-.58,.86-.65,1.22-.65,1.94,0,4.1,1.58,4.1,3.46Z"/>
    <path class="cls-3" d="M248.53,353.04c2.38,0,4.39,1.51,4.39,4.97,0,5.54-7.2,7.56-10.08,7.56h-.58c-.5,0-1.15-.14-1.15-.65,0-.07,7.27-2.66,7.27-6.48,0-2.88-2.09-3.24-3.1-3.24-1.8,0-5.47,10.22-5.47,13.9,0,1.01,3.1,1.22,8.35,1.22,3.96,0,9.14-1.51,9.5-1.51,.22,0,.36,.22,.36,.43s-.14,.5-.22,.65c0,0-2.45,3.74-10.51,3.74-6.62,0-10.8-4.03-10.8-9.29,0-.58,0-1.15,.14-1.73,.58-3.24,5.26-9.58,11.88-9.58Z"/>
    <path class="cls-3" d="M265.52,357.43c0,2.16-1.51,5.69-2.38,8.57-.72,2.38-1.58,4.68-1.58,6.77,0,.36,.07,.43,.07,.58,0,.21,0,.36-.43,.36s-3.17-.5-3.17-4.39c0-2.02,3.53-9.87,3.53-13.46,0-.94-.43-2.02-.43-2.3s.29-.36,.36-.36,4.03,.36,4.03,4.25Zm.58-.14c0-.65,2.45-3.67,5.83-3.67,2.81,0,4.54,2.52,4.54,4.68,0,2.74-4.32,9.87-4.32,11.74,0,.14,1.58,.43,4.46,.43s4.83-.5,5.11-.5,.43,.14,.43,.36c0,.5-1.66,3.6-5.76,3.6-2.81,0-4.54-1.8-5.54-3.82-.72-1.37-1.01-2.81-1.01-4.32,.14-2.09,2.74-5.69,2.74-7.13,0-.5-.22-2.09-2.23-2.09-2.45,0-3.31,1.01-3.89,1.01-.14,0-.36-.29-.36-.29Z"/>
    <path class="cls-3" d="M283.01,353.68c0-.22,.22-.43,.5-.43s.5,0,.86,.07c0,0,.29,.07,2.45,.36l2.52-8.21c1.08-3.53,1.22-4.9,1.22-5.9,0-.43,0-1.37-.14-1.87-.07-.21-.14-.36-.14-.43,0-.29,.22-.36,.29-.36,2.3,0,4.25,1.73,4.25,4.25,0,2.23-1.73,7.34-3.53,12.67,2.81-.14,6.41-.65,7.34-.79,.14,0,.29,.14,.29,.29,0,.72-4.1,3.31-9,3.67l-2.23,7.2c-.79,2.59-.86,4.46-.86,5.26,.29,.21,3.67,1.08,6.7,1.08,2.16,0,4.54-.43,5.62-.65,.36-.07,.58-.07,.65-.07,.14,0,.29,.14,.29,.22,0,.5-2.95,3.53-6.91,3.53-4.82,0-7.2-2.59-8.28-4.46-.79-1.29-1.15-2.52-1.15-3.89,0-.36,0-.72,.07-1.08,.14-1.66,.79-3.67,1.37-5.4l.65-2.23c-.86-.29-1.66-.72-2.16-1.37-.58-.72-.65-1.15-.65-1.44Z"/>
    <path class="cls-3" d="M312.75,353.04c2.38,0,4.39,1.51,4.39,4.97,0,5.54-7.2,7.56-10.08,7.56h-.58c-.5,0-1.15-.14-1.15-.65,0-.07,7.27-2.66,7.27-6.48,0-2.88-2.09-3.24-3.1-3.24-1.8,0-5.47,10.22-5.47,13.9,0,1.01,3.1,1.22,8.35,1.22,3.96,0,9.14-1.51,9.5-1.51,.22,0,.36,.22,.36,.43s-.14,.5-.22,.65c0,0-2.45,3.74-10.51,3.74-6.62,0-10.8-4.03-10.8-9.29,0-.58,0-1.15,.14-1.73,.58-3.24,5.26-9.58,11.88-9.58Z"/>
  </g>
  <path class="cls-2" d="M317.23,154.56c-3.56,8.08-8.98,14.41-13.09,18.44-2.16,2.12-4.38,4.47-7.3,5.26-12.42,3.33-15.95,19.1-17.8,36.96,4.73,7.44,14.92,18.86,25.95,30.85,4.51,4.9,9.15,9.88,13.64,14.74,15.75,17.1,29.39,32.52,27.17,36.11-.06,.09-.13,.18-.21,.26-.12,.12-.28,.23-.46,.3-.22,.1-.47,.16-.76,.19-12.72,1.49-27.03-10.32-37.79-22.12-.59-.64-1.23-1.28-1.91-1.91-4.86-4.43-11.91-8.32-18.54-11.36-9.49-4.35-18.11-6.96-18.11-6.96-5.15-.31-1.83-9.92-1.7-10.32l-8.62,5.53s-15.49-1.01-15.28-6.94c.21-5.93-15.05-19.94-22.4-25.22-7.34-5.29-7.2-15.23-9.28-27.96-12.22-35.14-18.78-46.44-28.9-54.22-3.74-2.87-11.56-4.45-19.91-5.28-8.36-.84-12.91-1.28-18.81-1.22-4.15,.04-12.87,3.61-12.87,3.61,2.3-.9,.95-2.7,6.56-4.17,.43-.11,4-1.26,4.44-1.33,5.77-.94,12.25-1.29,18.09-1.28,.83,0,1.65,0,2.46,.02,1.19,.02,2.34,.05,3.44,.1,4.86,.21,8.73,.64,10.52,1.11,5.54,1.46,23.73-2.69,38.36-3.32,14.63-.62,18.01,20.05,18.56,27.03,.55,6.98,12.09,16.29,12.09,16.29,0,0,25.23-29.48,45.16-39.43,4.6-2.3,8.96-5.03,13.09-8.1,11.71-8.73,48.85-44.26,14.22,34.32Z"/>
</svg>