<?xml version="1.0" encoding="UTF-8"?>
<svg id="Layer_22" data-name="Layer 22" xmlns="http://www.w3.org/2000/svg" viewBox="0 0 752.2 352.91">
  <defs>
    <style>
      .cls-1 {
        fill: #c1272d;
      }

      .cls-2 {
        fill: #d43341;
      }

      .cls-3 {
        stroke: #000;
        stroke-miterlimit: 10;
        stroke-width: 2px;
      }
    </style>
  </defs>
  <g>
    <path d="M98.58,256.63c-31.26-33.23-38.69-84.29-19.64-125.43,32.89-73,128.68-91.4,186.24-35.57,60.75,58.72,39.79,161.65-39.19,191.94-43.78,17-96.13,3.7-127.41-30.94h0Zm5.78-5.58c24.76,24.86,62.23,35.31,96.3,27.88,81.93-17.11,115.2-115.46,59.28-178.25-53.02-58.94-149.69-42.29-180.32,30.81-17.11,40.11-6.48,89.48,24.73,119.56h0Z"/>
    <path class="cls-1" d="M224.85,206.09c4.73,7.45,14.91,18.87,25.95,30.86,4.51,4.9,9.15,9.89,13.63,14.75,15.75,17.11,29.38,32.53,27.16,36.12-.06,.09-.13,.18-.21,.26-.12,.12-.28,.23-.46,.3-.22,.1-.47,.16-.76,.19-12.71,1.49-27.02-10.32-37.78-22.12-.59-.64-1.23-1.28-1.91-1.91-4.86-4.44-11.9-8.32-18.54-11.36-9.49-4.35-18.1-6.96-18.1-6.96"/>
  </g>
  <g>
    <path class="cls-3" d="M409.08,218.41l8.2,5.51c6.1-4.65,11.16-10.33,14.48-16.7,4.01-7.75,5.93-16.7,5.93-25.65,0-5.17-.53-10.33-1.92-15.5-7.33-21.01-27.73-33.57-49.71-33.57-1.57,0-3.31,0-5.06,.17-5.06,.51-10.12,1.2-12.56,2.24-1.92,.69-2.09,.69-2.09,.69-.35,0-1.05-.34-1.05-.69,0-.17,.18-.35,.35-.69,.87-1.2,10.99-13.94,33.14-13.94h1.74c32.79,.69,49.53,29.79,49.53,52.86,0,15.33-6.63,30.3-16.57,42.36-2.62,3.27-6.8,7.23-11.86,11.36,9.24,5.51,17.61,7.4,21.98,7.4,4.71,0,6.1-.69,7.5-.69,.87,0,1.4,.69,1.4,1.38,0,1.03-6.45,9.98-18.31,9.98-8.02,0-13.43-3.79-19.19-8.09-1.22-.86-2.44-1.89-3.84-2.76-10.12,6.2-22.15,11.19-33.66,11.19-7.15,0-16.04-2.76-23.54-7.57-15.35-11.37-21.8-27.55-21.8-42.7,0-11.54,4.53-23.76,10.99-32.2,5.06-6.71,20.75-23.42,29.82-24.28,0,0,1.05,.52,1.05,.86s-.53,.86-1.57,1.55c-2.79,2.07-8.89,6.54-16.74,21.18-5.41,9.98-8.72,20.83-8.72,30.65,0,13.6,4.18,26,16.92,35.47,6.28,4.82,14.82,7.06,22.85,7.06,6.28,0,13.08-1.72,19.36-4.48l-6.98-4.48c-7.85-4.99-14.13-9.13-21.97-9.13-2.62,0-5.06,.17-7.85,.52-.87,.17-1.4,.17-1.92,.17-.87,0-1.22-.69-1.22-1.38,0-.86,8.2-9.13,18.66-9.13,7.85,0,15.17,4.99,24.24,11.02Z"/>
    <path d="M478.14,145.92c0,6.54-8.89,15.15-15,17.22-1.05,.35-1.74,.52-2.27,.52-.7,0-1.05-.35-1.22-.69,.18-.86,1.05-2.24,2.09-3.79l1.57-2.06c1.92-2.76,3.14-6.89,3.14-10.33,0-.69,0-1.72-.87-5.34-.18-1.03-.35-1.55-.35-2.24,0-1.38,2.09-1.55,2.96-1.55,4.71,0,9.94,3.79,9.94,8.26Z"/>
    <path class="cls-3" d="M503.6,189.14c5.75,0,10.64,3.61,10.64,11.88,0,13.26-17.44,18.08-24.42,18.08h-1.4c-1.22,0-2.79-.35-2.79-1.55,0-.17,17.61-6.37,17.61-15.5,0-6.89-5.06-7.75-7.5-7.75-4.36,0-13.26,24.45-13.26,33.23,0,2.41,7.5,2.93,20.23,2.93,9.59,0,22.15-3.61,23.02-3.61,.52,0,.87,.52,.87,1.03s-.35,1.2-.52,1.55c0,0-5.93,8.95-25.46,8.95-16.05,0-26.16-9.64-26.16-22.21,0-1.38,0-2.76,.35-4.13,1.4-7.75,12.73-22.9,28.78-22.9Z"/>
    <path class="cls-3" d="M544.75,199.64c0,5.17-3.66,13.6-5.75,20.49-1.74,5.68-3.84,11.19-3.84,16.19,0,.86,.18,1.03,.18,1.38,0,.51,0,.86-1.05,.86s-7.67-1.2-7.67-10.5c0-4.82,8.55-23.59,8.55-32.2,0-2.24-1.05-4.82-1.05-5.51s.7-.86,.87-.86,9.77,.86,9.77,10.16Zm1.4-.35c0-1.55,5.93-8.78,14.13-8.78,6.8,0,10.99,6.02,10.99,11.19,0,6.54-10.46,23.59-10.46,28.07,0,.34,3.84,1.03,10.81,1.03s11.69-1.2,12.38-1.2,1.05,.35,1.05,.86c0,1.2-4.01,8.61-13.95,8.61-6.8,0-10.99-4.31-13.43-9.13-1.75-3.27-2.44-6.72-2.44-10.33,.35-5,6.63-13.6,6.63-17.05,0-1.2-.52-4.99-5.4-4.99-5.93,0-8.02,2.41-9.42,2.41-.35,0-.87-.69-.87-.69Z"/>
    <path class="cls-3" d="M587.13,190.69c0-.52,.52-1.03,1.22-1.03s1.22,0,2.09,.17c0,0,.7,.17,5.93,.86l6.1-19.63c2.62-8.43,2.97-11.71,2.97-14.12,0-1.03,0-3.27-.35-4.48-.17-.51-.35-.86-.35-1.03,0-.69,.52-.86,.7-.86,5.58,0,10.29,4.13,10.29,10.16,0,5.34-4.18,17.56-8.55,30.3,6.8-.35,15.52-1.55,17.79-1.9,.35,0,.7,.35,.7,.69,0,1.72-9.94,7.92-21.8,8.78l-5.4,17.22c-1.92,6.2-2.09,10.67-2.09,12.57,.7,.51,8.89,2.58,16.22,2.58,5.23,0,10.99-1.03,13.6-1.55,.87-.17,1.4-.17,1.57-.17,.35,0,.7,.35,.7,.52,0,1.2-7.15,8.43-16.74,8.43-11.68,0-17.44-6.2-20.06-10.68-1.92-3.1-2.79-6.02-2.79-9.29,0-.86,0-1.72,.18-2.58,.35-3.96,1.92-8.78,3.31-12.91l1.57-5.34c-2.09-.69-4.01-1.72-5.23-3.27-1.39-1.72-1.57-2.76-1.57-3.44Z"/>
    <path class="cls-3" d="M659.15,189.14c5.75,0,10.64,3.61,10.64,11.88,0,13.26-17.44,18.08-24.42,18.08h-1.4c-1.22,0-2.79-.35-2.79-1.55,0-.17,17.61-6.37,17.61-15.5,0-6.89-5.06-7.75-7.5-7.75-4.36,0-13.26,24.45-13.26,33.23,0,2.41,7.5,2.93,20.23,2.93,9.59,0,22.15-3.61,23.02-3.61,.52,0,.87,.52,.87,1.03s-.35,1.2-.52,1.55c0,0-5.93,8.95-25.46,8.95-16.05,0-26.16-9.64-26.16-22.21,0-1.38,0-2.76,.35-4.13,1.4-7.75,12.73-22.9,28.78-22.9Z"/>
  </g>
  <path class="cls-2" d="M263.09,145.68c-3.56,8.09-8.97,14.42-13.09,18.44-2.16,2.12-4.38,4.47-7.3,5.26-12.42,3.34-15.95,19.11-17.8,36.97,4.73,7.45,14.91,18.87,25.95,30.86,4.51,4.9,9.15,9.89,13.63,14.75,15.75,17.11,29.38,32.53,27.16,36.12-.06,.09-.13,.18-.21,.26-.12,.12-.28,.23-.46,.3-.22,.1-.47,.16-.76,.19-12.71,1.49-27.02-10.32-37.78-22.12-.59-.64-1.23-1.28-1.91-1.91-4.86-4.44-11.9-8.32-18.54-11.36-9.49-4.35-18.1-6.96-18.1-6.96-5.15-.31-1.83-9.93-1.7-10.32l-8.62,5.53s-15.49-1.01-15.27-6.94c.21-5.93-15.05-19.95-22.39-25.23-7.34-5.29-7.2-15.23-9.28-27.97-12.22-35.15-18.78-46.45-28.89-54.23-3.74-2.88-11.56-4.46-19.91-5.28-8.35-.84-12.9-1.28-18.81-1.22-4.15,.04-12.87,3.61-12.87,3.61,2.3-.9,.95-2.7,6.56-4.17,.43-.11,4-1.26,4.44-1.33,5.77-.94,12.25-1.29,18.09-1.28,.83,0,1.65,0,2.46,.02,1.19,.02,2.34,.05,3.44,.1,4.86,.21,8.73,.64,10.51,1.11,5.54,1.46,23.72-2.69,38.35-3.32,14.63-.62,18,20.05,18.56,27.04,.55,6.98,12.09,16.3,12.09,16.3,0,0,25.22-29.49,45.15-39.44,4.6-2.3,8.96-5.03,13.08-8.1,11.71-8.73,48.83-44.27,14.22,34.33Z"/>
</svg>