<?xml version="1.0" encoding="utf-8"?>
<!-- Generator: Adobe Illustrator 26.5.0, SVG Export Plug-In . SVG Version: 6.00 Build 0)  -->
<svg version="1.1" id="Layer_19" xmlns="http://www.w3.org/2000/svg" xmlns:xlink="http://www.w3.org/1999/xlink" x="0px" y="0px"
	 viewBox="0 0 500 500" style="enable-background:new 0 0 500 500;" xml:space="preserve">
<style type="text/css">
	.st0{fill:#C1272D;}
	.st1{fill:#D43341;}
</style>
<g>
	<path d="M69.9,417.5C3.4,346.9-12.4,238.4,28.1,150.9C97.9-4.1,301.9-43.2,424.1,75.4c129.1,124.9,84.6,343.5-83.4,407.9
		C247.6,519.4,136.4,491.1,69.9,417.5L69.9,417.5L69.9,417.5z M82.1,405.7c52.7,52.8,132.3,75,204.7,59.2
		C461,428.5,531.8,219.7,412.9,86.1C300.2-39,94.8-3.8,29.6,151.6C-6.9,236.8,15.8,341.7,82.1,405.7L82.1,405.7z"/>
	<path class="st0" d="M338.3,310.1c10.1,15.8,31.7,40.1,55.2,65.6c9.6,10.4,19.4,21,29,31.3c33.5,36.3,62.5,69.1,57.8,76.8
		c-0.1,0.2-0.3,0.4-0.4,0.6c-0.3,0.3-0.6,0.5-1,0.6c-0.5,0.2-1,0.3-1.6,0.4c-27,3.2-57.5-21.9-80.3-47c-1.3-1.4-2.6-2.7-4.1-4.1
		c-10.3-9.4-25.3-17.7-39.4-24.1c-20.2-9.2-38.5-14.8-38.5-14.8"/>
</g>
<path class="st1" d="M419.6,181.8c-7.6,17.2-19.1,30.6-27.8,39.2c-4.6,4.5-9.3,9.5-15.5,11.2c-26.4,7.1-33.9,40.6-37.8,78.6
	c10.1,15.8,31.7,40.1,55.2,65.6c9.6,10.4,19.4,21,29,31.3c33.5,36.3,62.5,69.1,57.8,76.8c-0.1,0.2-0.3,0.4-0.4,0.6
	c-0.3,0.3-0.6,0.5-1,0.6c-0.5,0.2-1,0.3-1.6,0.4c-27,3.2-57.5-21.9-80.3-47c-1.3-1.4-2.6-2.7-4.1-4.1c-10.3-9.4-25.3-17.7-39.4-24.1
	c-20.2-9.2-38.5-14.8-38.5-14.8c-10.9-0.7-3.9-21.1-3.6-21.9l-18.3,11.8c0,0-32.9-2.1-32.5-14.8c0.4-12.6-32-42.4-47.6-53.6
	c-15.6-11.2-15.3-32.4-19.7-59.4c-26-74.7-39.9-98.7-61.4-115.2c-7.9-6.1-24.6-9.5-42.3-11.2c-17.8-1.8-27.4-2.7-40-2.6
	c-8.8,0.1-27.4,7.7-27.4,7.7c4.9-1.9,2-5.7,13.9-8.9c0.9-0.2,8.5-2.7,9.4-2.8c12.3-2,26-2.7,38.5-2.7c1.8,0,3.5,0,5.2,0
	c2.5,0,5,0.1,7.3,0.2c10.3,0.4,18.6,1.4,22.4,2.4c11.8,3.1,50.4-5.7,81.5-7.1c31.1-1.3,38.3,42.6,39.4,57.5
	c1.2,14.8,25.7,34.6,25.7,34.6s53.6-62.7,96-83.8c9.8-4.9,19-10.7,27.8-17.2C414.3,90.2,493.2,14.7,419.6,181.8L419.6,181.8z"/>
</svg>
